<?xml version="1.0" encoding="UTF-8" standalone="no"?>
<!DOCTYPE svg PUBLIC "-//W3C//DTD SVG 1.1//EN"
 "http://www.w3.org/Graphics/SVG/1.1/DTD/svg11.dtd">
<!-- Generated by graphviz version 2.26.3 (20100126.1600)
 -->
<!-- Title: G Pages: 1 -->
<svg width="1172pt" height="2007pt"
 viewBox="0.00 0.00 1172.00 2006.65" xmlns="http://www.w3.org/2000/svg" xmlns:xlink="http://www.w3.org/1999/xlink">
<g id="graph1" class="graph" transform="scale(1 1) rotate(0) translate(4 2002.65)">
<title>G</title>
<polygon fill="white" stroke="white" points="-4,5 -4,-2002.65 1169,-2002.65 1169,5 -4,5"/>
<g id="graph2" class="cluster"><title>cluster_ZucchiModel</title>
<polyline fill="none" stroke="gray" points="57,-498.65 1144,-498.65 "/>
<path fill="none" stroke="gray" d="M1144,-498.65C1150,-498.65 1156,-504.65 1156,-510.65"/>
<polyline fill="none" stroke="gray" points="1156,-510.65 1156,-1978.65 "/>
<path fill="none" stroke="gray" d="M1156,-1978.65C1156,-1984.65 1150,-1990.65 1144,-1990.65"/>
<polyline fill="none" stroke="gray" points="1144,-1990.65 57,-1990.65 "/>
<path fill="none" stroke="gray" d="M57,-1990.65C51,-1990.65 45,-1984.65 45,-1978.65"/>
<polyline fill="none" stroke="gray" points="45,-1978.65 45,-510.65 "/>
<path fill="none" stroke="gray" d="M45,-510.65C45,-504.65 51,-498.65 57,-498.65"/>
<text text-anchor="middle" x="600.5" y="-1976.75" font-family="Times Roman,serif" font-size="11.00" fill="gray">ZucchiModel</text>
</g>
<g id="graph3" class="cluster"><title>cluster_ZucchiModel\Adapter</title>
<polyline fill="none" stroke="gray" points="73,-1832.65 1092,-1832.65 "/>
<path fill="none" stroke="gray" d="M1092,-1832.65C1098,-1832.65 1104,-1838.65 1104,-1844.65"/>
<polyline fill="none" stroke="gray" points="1104,-1844.65 1104,-1948.65 "/>
<path fill="none" stroke="gray" d="M1104,-1948.65C1104,-1954.65 1098,-1960.65 1092,-1960.65"/>
<polyline fill="none" stroke="gray" points="1092,-1960.65 73,-1960.65 "/>
<path fill="none" stroke="gray" d="M73,-1960.65C67,-1960.65 61,-1954.65 61,-1948.65"/>
<polyline fill="none" stroke="gray" points="61,-1948.65 61,-1844.65 "/>
<path fill="none" stroke="gray" d="M61,-1844.65C61,-1838.65 67,-1832.65 73,-1832.65"/>
<text text-anchor="middle" x="582.5" y="-1946.75" font-family="Times Roman,serif" font-size="11.00" fill="gray">Adapter</text>
</g>
<g id="graph4" class="cluster"><title>cluster_ZucchiModel\Annotation</title>
<polyline fill="none" stroke="gray" points="1008,-1588.65 1126,-1588.65 "/>
<path fill="none" stroke="gray" d="M1126,-1588.65C1132,-1588.65 1138,-1594.65 1138,-1600.65"/>
<polyline fill="none" stroke="gray" points="1138,-1600.65 1138,-1812.65 "/>
<path fill="none" stroke="gray" d="M1138,-1812.65C1138,-1818.65 1132,-1824.65 1126,-1824.65"/>
<polyline fill="none" stroke="gray" points="1126,-1824.65 1008,-1824.65 "/>
<path fill="none" stroke="gray" d="M1008,-1824.65C1002,-1824.65 996,-1818.65 996,-1812.65"/>
<polyline fill="none" stroke="gray" points="996,-1812.65 996,-1600.65 "/>
<path fill="none" stroke="gray" d="M996,-1600.65C996,-1594.65 1002,-1588.65 1008,-1588.65"/>
<text text-anchor="middle" x="1067" y="-1810.75" font-family="Times Roman,serif" font-size="11.00" fill="gray">Annotation</text>
</g>
<g id="graph5" class="cluster"><title>cluster_ZucchiModel\Behaviour</title>
<polyline fill="none" stroke="gray" points="1005,-1506.65 1129,-1506.65 "/>
<path fill="none" stroke="gray" d="M1129,-1506.65C1135,-1506.65 1141,-1512.65 1141,-1518.65"/>
<polyline fill="none" stroke="gray" points="1141,-1518.65 1141,-1568.65 "/>
<path fill="none" stroke="gray" d="M1141,-1568.65C1141,-1574.65 1135,-1580.65 1129,-1580.65"/>
<polyline fill="none" stroke="gray" points="1129,-1580.65 1005,-1580.65 "/>
<path fill="none" stroke="gray" d="M1005,-1580.65C999,-1580.65 993,-1574.65 993,-1568.65"/>
<polyline fill="none" stroke="gray" points="993,-1568.65 993,-1518.65 "/>
<path fill="none" stroke="gray" d="M993,-1518.65C993,-1512.65 999,-1506.65 1005,-1506.65"/>
<text text-anchor="middle" x="1067" y="-1566.75" font-family="Times Roman,serif" font-size="11.00" fill="gray">Behaviour</text>
</g>
<g id="graph6" class="cluster"><title>cluster_ZucchiModel\Hydrator</title>
<polyline fill="none" stroke="gray" points="1005,-906.65 1129,-906.65 "/>
<path fill="none" stroke="gray" d="M1129,-906.65C1135,-906.65 1141,-912.65 1141,-918.65"/>
<polyline fill="none" stroke="gray" points="1141,-918.65 1141,-1022.65 "/>
<path fill="none" stroke="gray" d="M1141,-1022.65C1141,-1028.65 1135,-1034.65 1129,-1034.65"/>
<polyline fill="none" stroke="gray" points="1129,-1034.65 1005,-1034.65 "/>
<path fill="none" stroke="gray" d="M1005,-1034.65C999,-1034.65 993,-1028.65 993,-1022.65"/>
<polyline fill="none" stroke="gray" points="993,-1022.65 993,-918.65 "/>
<path fill="none" stroke="gray" d="M993,-918.65C993,-912.65 999,-906.65 1005,-906.65"/>
<text text-anchor="middle" x="1067" y="-1020.75" font-family="Times Roman,serif" font-size="11.00" fill="gray">Hydrator</text>
</g>
<g id="graph7" class="cluster"><title>cluster_ZucchiModel\Metadata</title>
<polyline fill="none" stroke="gray" points="65,-1178.65 1129,-1178.65 "/>
<path fill="none" stroke="gray" d="M1129,-1178.65C1135,-1178.65 1141,-1184.65 1141,-1190.65"/>
<polyline fill="none" stroke="gray" points="1141,-1190.65 1141,-1486.65 "/>
<path fill="none" stroke="gray" d="M1141,-1486.65C1141,-1492.65 1135,-1498.65 1129,-1498.65"/>
<polyline fill="none" stroke="gray" points="1129,-1498.65 65,-1498.65 "/>
<path fill="none" stroke="gray" d="M65,-1498.65C59,-1498.65 53,-1492.65 53,-1486.65"/>
<polyline fill="none" stroke="gray" points="53,-1486.65 53,-1190.65 "/>
<path fill="none" stroke="gray" d="M53,-1190.65C53,-1184.65 59,-1178.65 65,-1178.65"/>
<text text-anchor="middle" x="597" y="-1484.75" font-family="Times Roman,serif" font-size="11.00" fill="gray">Metadata</text>
</g>
<g id="graph8" class="cluster"><title>cluster_ZucchiModel\Metadata\Adapter</title>
<polyline fill="none" stroke="gray" points="73,-1394.65 1092,-1394.65 "/>
<path fill="none" stroke="gray" d="M1092,-1394.65C1098,-1394.65 1104,-1400.65 1104,-1406.65"/>
<polyline fill="none" stroke="gray" points="1104,-1406.65 1104,-1456.65 "/>
<path fill="none" stroke="gray" d="M1104,-1456.65C1104,-1462.65 1098,-1468.65 1092,-1468.65"/>
<polyline fill="none" stroke="gray" points="1092,-1468.65 73,-1468.65 "/>
<path fill="none" stroke="gray" d="M73,-1468.65C67,-1468.65 61,-1462.65 61,-1456.65"/>
<polyline fill="none" stroke="gray" points="61,-1456.65 61,-1406.65 "/>
<path fill="none" stroke="gray" d="M61,-1406.65C61,-1400.65 67,-1394.65 73,-1394.65"/>
<text text-anchor="middle" x="582.5" y="-1454.75" font-family="Times Roman,serif" font-size="11.00" fill="gray">Adapter</text>
</g>
<g id="graph9" class="cluster"><title>cluster_ZucchiModel\Options</title>
<polyline fill="none" stroke="gray" points="998,-824.65 1136,-824.65 "/>
<path fill="none" stroke="gray" d="M1136,-824.65C1142,-824.65 1148,-830.65 1148,-836.65"/>
<polyline fill="none" stroke="gray" points="1148,-836.65 1148,-886.65 "/>
<path fill="none" stroke="gray" d="M1148,-886.65C1148,-892.65 1142,-898.65 1136,-898.65"/>
<polyline fill="none" stroke="gray" points="1136,-898.65 998,-898.65 "/>
<path fill="none" stroke="gray" d="M998,-898.65C992,-898.65 986,-892.65 986,-886.65"/>
<polyline fill="none" stroke="gray" points="986,-886.65 986,-836.65 "/>
<path fill="none" stroke="gray" d="M986,-836.65C986,-830.65 992,-824.65 998,-824.65"/>
<text text-anchor="middle" x="1067" y="-884.75" font-family="Times Roman,serif" font-size="11.00" fill="gray">Options</text>
</g>
<g id="graph10" class="cluster"><title>cluster_ZucchiModel\Persistence</title>
<polyline fill="none" stroke="gray" points="998,-552.65 1136,-552.65 "/>
<path fill="none" stroke="gray" d="M1136,-552.65C1142,-552.65 1148,-558.65 1148,-564.65"/>
<polyline fill="none" stroke="gray" points="1148,-564.65 1148,-722.65 "/>
<path fill="none" stroke="gray" d="M1148,-722.65C1148,-728.65 1142,-734.65 1136,-734.65"/>
<polyline fill="none" stroke="gray" points="1136,-734.65 998,-734.65 "/>
<path fill="none" stroke="gray" d="M998,-734.65C992,-734.65 986,-728.65 986,-722.65"/>
<polyline fill="none" stroke="gray" points="986,-722.65 986,-564.65 "/>
<path fill="none" stroke="gray" d="M986,-564.65C986,-558.65 992,-552.65 998,-552.65"/>
<text text-anchor="middle" x="1067" y="-720.75" font-family="Times Roman,serif" font-size="11.00" fill="gray">Persistence</text>
</g>
<g id="graph11" class="cluster"><title>cluster_ZucchiModel\Query</title>
<polyline fill="none" stroke="gray" points="1035,-742.65 1099,-742.65 "/>
<path fill="none" stroke="gray" d="M1099,-742.65C1105,-742.65 1111,-748.65 1111,-754.65"/>
<polyline fill="none" stroke="gray" points="1111,-754.65 1111,-804.65 "/>
<path fill="none" stroke="gray" d="M1111,-804.65C1111,-810.65 1105,-816.65 1099,-816.65"/>
<polyline fill="none" stroke="gray" points="1099,-816.65 1035,-816.65 "/>
<path fill="none" stroke="gray" d="M1035,-816.65C1029,-816.65 1023,-810.65 1023,-804.65"/>
<polyline fill="none" stroke="gray" points="1023,-804.65 1023,-754.65 "/>
<path fill="none" stroke="gray" d="M1023,-754.65C1023,-748.65 1029,-742.65 1035,-742.65"/>
<text text-anchor="middle" x="1067" y="-802.75" font-family="Times Roman,serif" font-size="11.00" fill="gray">Query</text>
</g>
<g id="graph12" class="cluster"><title>cluster_ZucchiModel\ResultSet</title>
<polyline fill="none" stroke="gray" points="564,-1042.65 1132,-1042.65 "/>
<path fill="none" stroke="gray" d="M1132,-1042.65C1138,-1042.65 1144,-1048.65 1144,-1054.65"/>
<polyline fill="none" stroke="gray" points="1144,-1054.65 1144,-1158.65 "/>
<path fill="none" stroke="gray" d="M1144,-1158.65C1144,-1164.65 1138,-1170.65 1132,-1170.65"/>
<polyline fill="none" stroke="gray" points="1132,-1170.65 564,-1170.65 "/>
<path fill="none" stroke="gray" d="M564,-1170.65C558,-1170.65 552,-1164.65 552,-1158.65"/>
<polyline fill="none" stroke="gray" points="552,-1158.65 552,-1054.65 "/>
<path fill="none" stroke="gray" d="M552,-1054.65C552,-1048.65 558,-1042.65 564,-1042.65"/>
<text text-anchor="middle" x="848" y="-1156.75" font-family="Times Roman,serif" font-size="11.00" fill="gray">ResultSet</text>
</g>
<!-- \\ZucchiModel\\Adapter\\Mongo -->
<g id="node3" class="node"><title>\\ZucchiModel\\Adapter\\Mongo</title>
<a xlink:href="Adapter.Mongo.html" xlink:title="Mongo" target="_parent">
<polygon fill="none" stroke="black" points="1094,-1930.65 1040,-1930.65 1040,-1894.65 1094,-1894.65 1094,-1930.65"/>
<text text-anchor="middle" x="1067" y="-1909.75" font-family="Courier,monospace" font-size="11.00">Mongo</text>
</a>
</g>
<!-- \\ZucchiModel\\Adapter\\AbstractAdapter -->
<g id="node4" class="node"><title>\\ZucchiModel\\Adapter\\AbstractAdapter</title>
<a xlink:href="Adapter.AbstractAdapter.html" xlink:title="«abstract»&lt;br/&gt;AbstractAdapter" target="_parent">
<polygon fill="none" stroke="black" points="688,-1903.65 570,-1903.65 570,-1867.65 688,-1867.65 688,-1903.65"/>
<text text-anchor="start" x="595" y="-1891.08" font-family="Courier,monospace" font-size="11.00">«abstract»</text>
<text text-anchor="start" x="578" y="-1877.88" font-family="Courier,monospace" font-size="11.00">AbstractAdapter</text>
</a>
</g>
<!-- \\ZucchiModel\\Adapter\\Mongo&#45;&gt;\\ZucchiModel\\Adapter\\AbstractAdapter -->
<g id="edge21" class="edge"><title>\\ZucchiModel\\Adapter\\Mongo&#45;&gt;\\ZucchiModel\\Adapter\\AbstractAdapter</title>
<path fill="none" stroke="black" d="M1039.93,-1910.98C972.921,-1906.85 797.605,-1896.04 698.983,-1889.96"/>
<polygon fill="none" stroke="black" points="699.005,-1886.46 688.808,-1889.34 698.574,-1893.45 699.005,-1886.46"/>
</g>
<!-- \\ZucchiModel\\Adapter\\AdapterInterface -->
<g id="node5" class="node"><title>\\ZucchiModel\\Adapter\\AdapterInterface</title>
<a xlink:href="Adapter.AdapterInterface.html" xlink:title="AdapterInterface" target="_parent">
<polygon fill="none" stroke="black" points="194,-1903.65 70,-1903.65 70,-1867.65 194,-1867.65 194,-1903.65"/>
<text text-anchor="middle" x="132" y="-1882.75" font-family="Courier,monospace" font-size="11.00">AdapterInterface</text>
</a>
</g>
<!-- \\ZucchiModel\\Adapter\\AbstractAdapter&#45;&gt;\\ZucchiModel\\Adapter\\AdapterInterface -->
<g id="edge49" class="edge"><title>\\ZucchiModel\\Adapter\\AbstractAdapter&#45;&gt;\\ZucchiModel\\Adapter\\AdapterInterface</title>
<path fill="none" stroke="black" stroke-dasharray="1,5" d="M569.05,-1885.65C477.538,-1885.65 303.266,-1885.65 204.682,-1885.65"/>
<polygon fill="none" stroke="black" points="204.507,-1882.15 194.507,-1885.65 204.507,-1889.15 204.507,-1882.15"/>
</g>
<!-- \\ZucchiModel\\Adapter\\ZendDb -->
<g id="node6" class="node"><title>\\ZucchiModel\\Adapter\\ZendDb</title>
<a xlink:href="Adapter.ZendDb.html" xlink:title="ZendDb" target="_parent">
<polygon fill="none" stroke="black" points="1095,-1876.65 1039,-1876.65 1039,-1840.65 1095,-1840.65 1095,-1876.65"/>
<text text-anchor="middle" x="1067" y="-1855.75" font-family="Courier,monospace" font-size="11.00">ZendDb</text>
</a>
</g>
<!-- \\ZucchiModel\\Adapter\\ZendDb&#45;&gt;\\ZucchiModel\\Adapter\\AbstractAdapter -->
<g id="edge23" class="edge"><title>\\ZucchiModel\\Adapter\\ZendDb&#45;&gt;\\ZucchiModel\\Adapter\\AbstractAdapter</title>
<path fill="none" stroke="black" d="M1038.26,-1860.42C969.975,-1864.63 796.408,-1875.33 698.655,-1881.36"/>
<polygon fill="none" stroke="black" points="698.335,-1877.87 688.569,-1881.98 698.766,-1884.86 698.335,-1877.87"/>
</g>
<!-- \\ZucchiModel\\Annotation\\Target -->
<g id="node8" class="node"><title>\\ZucchiModel\\Annotation\\Target</title>
<a xlink:href="Annotation.Target.html" xlink:title="Target" target="_parent">
<polygon fill="none" stroke="black" points="1095,-1794.65 1039,-1794.65 1039,-1758.65 1095,-1758.65 1095,-1794.65"/>
<text text-anchor="middle" x="1067" y="-1773.75" font-family="Courier,monospace" font-size="11.00">Target</text>
</a>
</g>
<!-- \\Zend\\Form\\Annotation\\AbstractArrayAnnotation -->
<g id="node42" class="node"><title>\\Zend\\Form\\Annotation\\AbstractArrayAnnotation</title>
<ellipse fill="none" stroke="black" cx="629" cy="-472.65" rx="251.023" ry="18.3848"/>
<text text-anchor="middle" x="629" y="-469.05" font-family="Times Roman,serif" font-size="14.00" fill="gray">\Zend\Form\Annotation\AbstractArrayAnnotation</text>
</g>
<!-- \\ZucchiModel\\Annotation\\Target&#45;&gt;\\Zend\\Form\\Annotation\\AbstractArrayAnnotation -->
<g id="edge15" class="edge"><title>\\ZucchiModel\\Annotation\\Target&#45;&gt;\\Zend\\Form\\Annotation\\AbstractArrayAnnotation</title>
<path fill="none" stroke="black" d="M1038.14,-1774.77C1020.26,-1771.99 998.417,-1765.34 986,-1749.65 887.561,-1625.25 966.409,-1190.95 922,-1038.65 856.981,-815.672 701.593,-577.818 647.749,-499.4"/>
<polygon fill="none" stroke="black" points="650.549,-497.295 641.988,-491.054 644.789,-501.272 650.549,-497.295"/>
</g>
<!-- \\ZucchiModel\\Annotation\\Relationship -->
<g id="node9" class="node"><title>\\ZucchiModel\\Annotation\\Relationship</title>
<a xlink:href="Annotation.Relationship.html" xlink:title="Relationship" target="_parent">
<polygon fill="none" stroke="black" points="1116,-1740.65 1018,-1740.65 1018,-1704.65 1116,-1704.65 1116,-1740.65"/>
<text text-anchor="middle" x="1067" y="-1719.75" font-family="Courier,monospace" font-size="11.00">Relationship</text>
</a>
</g>
<!-- \\ZucchiModel\\Annotation\\Relationship&#45;&gt;\\Zend\\Form\\Annotation\\AbstractArrayAnnotation -->
<g id="edge17" class="edge"><title>\\ZucchiModel\\Annotation\\Relationship&#45;&gt;\\Zend\\Form\\Annotation\\AbstractArrayAnnotation</title>
<path fill="none" stroke="black" d="M1017.8,-1715.93C1005.7,-1711.94 993.947,-1705.62 986,-1695.65 894.554,-1580.95 963.58,-1179.32 922,-1038.65 856.164,-815.911 701.299,-577.904 647.67,-499.423"/>
<polygon fill="none" stroke="black" points="650.479,-497.331 641.931,-491.07 644.709,-501.295 650.479,-497.331"/>
</g>
<!-- \\ZucchiModel\\Annotation\\Field -->
<g id="node10" class="node"><title>\\ZucchiModel\\Annotation\\Field</title>
<a xlink:href="Annotation.Field.html" xlink:title="Field" target="_parent">
<polygon fill="none" stroke="black" points="1094,-1686.65 1040,-1686.65 1040,-1650.65 1094,-1650.65 1094,-1686.65"/>
<text text-anchor="middle" x="1067" y="-1665.75" font-family="Courier,monospace" font-size="11.00">Field</text>
</a>
</g>
<!-- \\Zend\\Form\\Annotation\\AbstractArrayOrStringAnnotation -->
<g id="node45" class="node"><title>\\Zend\\Form\\Annotation\\AbstractArrayOrStringAnnotation</title>
<ellipse fill="none" stroke="black" cx="629" cy="-418.65" rx="292.242" ry="18.3848"/>
<text text-anchor="middle" x="629" y="-415.05" font-family="Times Roman,serif" font-size="14.00" fill="gray">\Zend\Form\Annotation\AbstractArrayOrStringAnnotation</text>
</g>
<!-- \\ZucchiModel\\Annotation\\Field&#45;&gt;\\Zend\\Form\\Annotation\\AbstractArrayOrStringAnnotation -->
<g id="edge19" class="edge"><title>\\ZucchiModel\\Annotation\\Field&#45;&gt;\\Zend\\Form\\Annotation\\AbstractArrayOrStringAnnotation</title>
<path fill="none" stroke="black" d="M1039.93,-1667.21C1021.63,-1664.68 998.58,-1658.16 986,-1641.65 905.33,-1535.81 1014.28,-541.542 922,-445.65 869.863,-391.47 780.816,-390.668 714.54,-399.774"/>
<polygon fill="none" stroke="black" points="713.905,-396.33 704.521,-401.249 714.924,-403.255 713.905,-396.33"/>
</g>
<!-- \\ZucchiModel\\Annotation\\MetadataListener -->
<g id="node11" class="node"><title>\\ZucchiModel\\Annotation\\MetadataListener</title>
<a xlink:href="Annotation.MetadataListener.html" xlink:title="MetadataListener" target="_parent">
<polygon fill="none" stroke="black" points="1129,-1632.65 1005,-1632.65 1005,-1596.65 1129,-1596.65 1129,-1632.65"/>
<text text-anchor="middle" x="1067" y="-1611.75" font-family="Courier,monospace" font-size="11.00">MetadataListener</text>
</a>
</g>
<!-- \\ZucchiModel\\Behaviour\\BehaviourListener -->
<g id="node13" class="node"><title>\\ZucchiModel\\Behaviour\\BehaviourListener</title>
<a xlink:href="Behaviour.BehaviourListener.html" xlink:title="BehaviourListener" target="_parent">
<polygon fill="none" stroke="black" points="1132,-1550.65 1002,-1550.65 1002,-1514.65 1132,-1514.65 1132,-1550.65"/>
<text text-anchor="middle" x="1067" y="-1529.75" font-family="Courier,monospace" font-size="11.00">BehaviourListener</text>
</a>
</g>
<!-- \\ZucchiModel\\Hydrator\\HydrationListener -->
<g id="node15" class="node"><title>\\ZucchiModel\\Hydrator\\HydrationListener</title>
<a xlink:href="Hydrator.HydrationListener.html" xlink:title="HydrationListener" target="_parent">
<polygon fill="none" stroke="black" points="1132,-1004.65 1002,-1004.65 1002,-968.65 1132,-968.65 1132,-1004.65"/>
<text text-anchor="middle" x="1067" y="-983.75" font-family="Courier,monospace" font-size="11.00">HydrationListener</text>
</a>
</g>
<!-- \\ZucchiModel\\Hydrator\\ObjectProperty -->
<g id="node16" class="node"><title>\\ZucchiModel\\Hydrator\\ObjectProperty</title>
<a xlink:href="Hydrator.ObjectProperty.html" xlink:title="ObjectProperty" target="_parent">
<polygon fill="none" stroke="black" points="1122,-950.65 1012,-950.65 1012,-914.65 1122,-914.65 1122,-950.65"/>
<text text-anchor="middle" x="1067" y="-929.75" font-family="Courier,monospace" font-size="11.00">ObjectProperty</text>
</a>
</g>
<!-- \\Zend\\Stdlib\\Hydrator\\ObjectProperty -->
<g id="node49" class="node"><title>\\Zend\\Stdlib\\Hydrator\\ObjectProperty</title>
<ellipse fill="none" stroke="black" cx="629" cy="-234.65" rx="193.954" ry="18.3848"/>
<text text-anchor="middle" x="629" y="-231.05" font-family="Times Roman,serif" font-size="14.00" fill="gray">\Zend\Stdlib\Hydrator\ObjectProperty</text>
</g>
<!-- \\ZucchiModel\\Hydrator\\ObjectProperty&#45;&gt;\\Zend\\Stdlib\\Hydrator\\ObjectProperty -->
<g id="edge25" class="edge"><title>\\ZucchiModel\\Hydrator\\ObjectProperty&#45;&gt;\\Zend\\Stdlib\\Hydrator\\ObjectProperty</title>
<path fill="none" stroke="black" d="M1011.44,-921.489C1001.64,-917.132 992.513,-911.073 986,-902.65 899.112,-790.277 1022.02,-367.518 922,-266.65 871.128,-215.345 787.241,-210.899 722.233,-217.231"/>
<polygon fill="none" stroke="black" points="721.538,-213.785 711.969,-218.334 722.286,-220.745 721.538,-213.785"/>
</g>
<!-- \\ZucchiModel\\Metadata\\Adapter\\AbstractAdapter -->
<g id="node19" class="node"><title>\\ZucchiModel\\Metadata\\Adapter\\AbstractAdapter</title>
<a xlink:href="MetaData.Adapter.AbstractAdapter.html" xlink:title="«abstract»&lt;br/&gt;AbstractAdapter" target="_parent">
<polygon fill="none" stroke="black" points="688,-1438.65 570,-1438.65 570,-1402.65 688,-1402.65 688,-1438.65"/>
<text text-anchor="start" x="595" y="-1426.08" font-family="Courier,monospace" font-size="11.00">«abstract»</text>
<text text-anchor="start" x="578" y="-1412.88" font-family="Courier,monospace" font-size="11.00">AbstractAdapter</text>
</a>
</g>
<!-- \\ZucchiModel\\Metadata\\Adapter\\AdapterInterface -->
<g id="node20" class="node"><title>\\ZucchiModel\\Metadata\\Adapter\\AdapterInterface</title>
<a xlink:href="MetaData.Adapter.AdapterInterface.html" xlink:title="AdapterInterface" target="_parent">
<polygon fill="none" stroke="black" points="194,-1438.65 70,-1438.65 70,-1402.65 194,-1402.65 194,-1438.65"/>
<text text-anchor="middle" x="132" y="-1417.75" font-family="Courier,monospace" font-size="11.00">AdapterInterface</text>
</a>
</g>
<!-- \\ZucchiModel\\Metadata\\Adapter\\AbstractAdapter&#45;&gt;\\ZucchiModel\\Metadata\\Adapter\\AdapterInterface -->
<g id="edge59" class="edge"><title>\\ZucchiModel\\Metadata\\Adapter\\AbstractAdapter&#45;&gt;\\ZucchiModel\\Metadata\\Adapter\\AdapterInterface</title>
<path fill="none" stroke="black" stroke-dasharray="1,5" d="M569.05,-1420.65C477.538,-1420.65 303.266,-1420.65 204.682,-1420.65"/>
<polygon fill="none" stroke="black" points="204.507,-1417.15 194.507,-1420.65 204.507,-1424.15 204.507,-1417.15"/>
</g>
<!-- \\Zend\\Stdlib\\ArrayObject -->
<g id="node60" class="node"><title>\\Zend\\Stdlib\\ArrayObject</title>
<ellipse fill="none" stroke="black" cx="132" cy="-395.65" rx="132.229" ry="18.3848"/>
<text text-anchor="middle" x="132" y="-392.05" font-family="Times Roman,serif" font-size="14.00" fill="gray">\Zend\Stdlib\ArrayObject</text>
</g>
<!-- \\ZucchiModel\\Metadata\\Adapter\\AbstractAdapter&#45;&gt;\\Zend\\Stdlib\\ArrayObject -->
<g id="edge37" class="edge"><title>\\ZucchiModel\\Metadata\\Adapter\\AbstractAdapter&#45;&gt;\\Zend\\Stdlib\\ArrayObject</title>
<path fill="none" stroke="black" d="M592.866,-1402.56C528.457,-1368.14 395.035,-1286.56 336,-1174.65 260.048,-1030.67 362.98,-574.89 264,-445.65 253.062,-431.369 237.544,-421.166 220.971,-413.878"/>
<polygon fill="none" stroke="black" points="222.261,-410.624 211.678,-410.122 219.638,-417.114 222.261,-410.624"/>
</g>
<!-- \\ZucchiModel\\Metadata\\Adapter\\ZendDb -->
<g id="node21" class="node"><title>\\ZucchiModel\\Metadata\\Adapter\\ZendDb</title>
<a xlink:href="MetaData.Adapter.ZendDb.html" xlink:title="ZendDb" target="_parent">
<polygon fill="none" stroke="black" points="1095,-1438.65 1039,-1438.65 1039,-1402.65 1095,-1402.65 1095,-1438.65"/>
<text text-anchor="middle" x="1067" y="-1417.75" font-family="Courier,monospace" font-size="11.00">ZendDb</text>
</a>
</g>
<!-- \\ZucchiModel\\Metadata\\Adapter\\ZendDb&#45;&gt;\\ZucchiModel\\Metadata\\Adapter\\AbstractAdapter -->
<g id="edge39" class="edge"><title>\\ZucchiModel\\Metadata\\Adapter\\ZendDb&#45;&gt;\\ZucchiModel\\Metadata\\Adapter\\AbstractAdapter</title>
<path fill="none" stroke="black" d="M1038.26,-1420.65C969.975,-1420.65 796.408,-1420.65 698.655,-1420.65"/>
<polygon fill="none" stroke="black" points="698.569,-1417.15 688.569,-1420.65 698.569,-1424.15 698.569,-1417.15"/>
</g>
<!-- \\ZucchiModel\\Metadata\\Fields -->
<g id="node22" class="node"><title>\\ZucchiModel\\Metadata\\Fields</title>
<a xlink:href="MetaData.Fields.html" xlink:title="Fields" target="_parent">
<polygon fill="none" stroke="black" points="1095,-1384.65 1039,-1384.65 1039,-1348.65 1095,-1348.65 1095,-1384.65"/>
<text text-anchor="middle" x="1067" y="-1363.75" font-family="Courier,monospace" font-size="11.00">Fields</text>
</a>
</g>
<!-- \\ZucchiModel\\Metadata\\Fields&#45;&gt;\\Zend\\Stdlib\\ArrayObject -->
<g id="edge41" class="edge"><title>\\ZucchiModel\\Metadata\\Fields&#45;&gt;\\Zend\\Stdlib\\ArrayObject</title>
<path fill="none" stroke="black" d="M1038.42,-1364.93C1020.42,-1362.22 998.332,-1355.6 986,-1339.65 856.839,-1172.62 1071.5,-540.755 922,-391.65 829.603,-299.498 741.149,-439.371 629,-372.65"/>
</g>
<!-- \\ZucchiModel\\Metadata\\MetaDataContainer -->
<g id="node23" class="node"><title>\\ZucchiModel\\Metadata\\MetaDataContainer</title>
<a xlink:href="MetaData.MetaDataContainer.html" xlink:title="MetaDataContainer" target="_parent">
<polygon fill="none" stroke="black" points="1132,-1330.65 1002,-1330.65 1002,-1294.65 1132,-1294.65 1132,-1330.65"/>
<text text-anchor="middle" x="1067" y="-1309.75" font-family="Courier,monospace" font-size="11.00">MetaDataContainer</text>
</a>
</g>
<!-- \\ZucchiModel\\Metadata\\Relationships -->
<g id="node24" class="node"><title>\\ZucchiModel\\Metadata\\Relationships</title>
<a xlink:href="MetaData.Relationships.html" xlink:title="Relationships" target="_parent">
<polygon fill="none" stroke="black" points="1119,-1276.65 1015,-1276.65 1015,-1240.65 1119,-1240.65 1119,-1276.65"/>
<text text-anchor="middle" x="1067" y="-1255.75" font-family="Courier,monospace" font-size="11.00">Relationships</text>
</a>
</g>
<!-- \\ZucchiModel\\Metadata\\Relationships&#45;&gt;\\Zend\\Stdlib\\ArrayObject -->
<g id="edge43" class="edge"><title>\\ZucchiModel\\Metadata\\Relationships&#45;&gt;\\Zend\\Stdlib\\ArrayObject</title>
<path fill="none" stroke="black" d="M1014.71,-1251.02C1003.67,-1246.99 993.203,-1240.88 986,-1231.65 870.844,-1084.05 1055.12,-523.277 922,-391.65 829.206,-299.898 741.149,-439.371 629,-372.65"/>
</g>
<!-- \\ZucchiModel\\Metadata\\Model -->
<g id="node25" class="node"><title>\\ZucchiModel\\Metadata\\Model</title>
<a xlink:href="MetaData.Model.html" xlink:title="Model" target="_parent">
<polygon fill="none" stroke="black" points="1094,-1222.65 1040,-1222.65 1040,-1186.65 1094,-1186.65 1094,-1222.65"/>
<text text-anchor="middle" x="1067" y="-1201.75" font-family="Courier,monospace" font-size="11.00">Model</text>
</a>
</g>
<!-- \\ZucchiModel\\Metadata\\Model&#45;&gt;\\Zend\\Stdlib\\ArrayObject -->
<g id="edge45" class="edge"><title>\\ZucchiModel\\Metadata\\Model&#45;&gt;\\Zend\\Stdlib\\ArrayObject</title>
<path fill="none" stroke="black" d="M1039.99,-1202.06C1021.72,-1198.78 998.686,-1191.38 986,-1174.65 880.51,-1035.55 1046.48,-514.056 922,-391.65 828.954,-300.154 741.149,-439.371 629,-372.65"/>
<path fill="none" stroke="black" d="M629,-372.65C597.067,-353.652 383.527,-370.584 246.94,-383.728"/>
<polygon fill="none" stroke="black" points="246.45,-380.259 236.834,-384.707 247.125,-387.227 246.45,-380.259"/>
</g>
<!-- \\ZucchiModel\\Options\\ModelManagerOptions -->
<g id="node27" class="node"><title>\\ZucchiModel\\Options\\ModelManagerOptions</title>
<a xlink:href="Options.ModelManagerOptions.html" xlink:title="ModelManagerOptions" target="_parent">
<polygon fill="none" stroke="black" points="1139,-868.65 995,-868.65 995,-832.65 1139,-832.65 1139,-868.65"/>
<text text-anchor="middle" x="1067" y="-847.75" font-family="Courier,monospace" font-size="11.00">ModelManagerOptions</text>
</a>
</g>
<!-- \\Zend\\Stdlib\\AbstractOptions -->
<g id="node40" class="node"><title>\\Zend\\Stdlib\\AbstractOptions</title>
<ellipse fill="none" stroke="black" cx="629" cy="-180.65" rx="152.028" ry="18.3848"/>
<text text-anchor="middle" x="629" y="-177.05" font-family="Times Roman,serif" font-size="14.00" fill="gray">\Zend\Stdlib\AbstractOptions</text>
</g>
<!-- \\ZucchiModel\\Options\\ModelManagerOptions&#45;&gt;\\Zend\\Stdlib\\AbstractOptions -->
<g id="edge27" class="edge"><title>\\ZucchiModel\\Options\\ModelManagerOptions&#45;&gt;\\Zend\\Stdlib\\AbstractOptions</title>
<path fill="none" stroke="black" d="M998.797,-832.486C993.959,-829.179 989.586,-825.27 986,-820.65 902.019,-712.456 1019.43,-303.908 922,-207.65 867.213,-153.525 775.339,-153.785 709.06,-163.146"/>
<polygon fill="none" stroke="black" points="708.43,-159.702 699.064,-164.654 709.474,-166.623 708.43,-159.702"/>
</g>
<!-- \\ZucchiModel\\Persistence\\Chain -->
<g id="node29" class="node"><title>\\ZucchiModel\\Persistence\\Chain</title>
<a xlink:href="Persistence.Chain.html" xlink:title="Chain" target="_parent">
<polygon fill="none" stroke="black" points="1094,-704.65 1040,-704.65 1040,-668.65 1094,-668.65 1094,-704.65"/>
<text text-anchor="middle" x="1067" y="-683.75" font-family="Courier,monospace" font-size="11.00">Chain</text>
</a>
</g>
<!-- \\Zend\\Stdlib\\ArrayStack -->
<g id="node52" class="node"><title>\\Zend\\Stdlib\\ArrayStack</title>
<ellipse fill="none" stroke="black" cx="629" cy="-126.65" rx="127.986" ry="18.3848"/>
<text text-anchor="middle" x="629" y="-123.05" font-family="Times Roman,serif" font-size="14.00" fill="gray">\Zend\Stdlib\ArrayStack</text>
</g>
<!-- \\ZucchiModel\\Persistence\\Chain&#45;&gt;\\Zend\\Stdlib\\ArrayStack -->
<g id="edge29" class="edge"><title>\\ZucchiModel\\Persistence\\Chain&#45;&gt;\\Zend\\Stdlib\\ArrayStack</title>
<path fill="none" stroke="black" d="M1039.9,-684.865C1021.83,-682.166 999.074,-675.575 986,-659.65 842.159,-484.453 1084.98,-311.196 922,-153.65 865.928,-99.4492 772.535,-100.291 706.273,-109.802"/>
<polygon fill="none" stroke="black" points="705.648,-106.357 696.292,-111.329 706.706,-113.276 705.648,-106.357"/>
</g>
<!-- \\ZucchiModel\\Persistence\\PersistenceListener -->
<g id="node30" class="node"><title>\\ZucchiModel\\Persistence\\PersistenceListener</title>
<a xlink:href="Persistence.PersistenceListener.html" xlink:title="PersistenceListener" target="_parent">
<polygon fill="none" stroke="black" points="1139,-650.65 995,-650.65 995,-614.65 1139,-614.65 1139,-650.65"/>
<text text-anchor="middle" x="1067" y="-629.75" font-family="Courier,monospace" font-size="11.00">PersistenceListener</text>
</a>
</g>
<!-- \\ZucchiModel\\Persistence\\Container -->
<g id="node31" class="node"><title>\\ZucchiModel\\Persistence\\Container</title>
<a xlink:href="Persistence.Container.html" xlink:title="Container" target="_parent">
<polygon fill="none" stroke="black" points="1105,-596.65 1029,-596.65 1029,-560.65 1105,-560.65 1105,-596.65"/>
<text text-anchor="middle" x="1067" y="-575.75" font-family="Courier,monospace" font-size="11.00">Container</text>
</a>
</g>
<!-- \\SplObjectStorage -->
<g id="node54" class="node"><title>\\SplObjectStorage</title>
<ellipse fill="none" stroke="black" cx="629" cy="-72.6502" rx="98.9949" ry="18.3848"/>
<text text-anchor="middle" x="629" y="-69.0502" font-family="Times Roman,serif" font-size="14.00" fill="gray">\SplObjectStorage</text>
</g>
<!-- \\ZucchiModel\\Persistence\\Container&#45;&gt;\\SplObjectStorage -->
<g id="edge31" class="edge"><title>\\ZucchiModel\\Persistence\\Container&#45;&gt;\\SplObjectStorage</title>
<path fill="none" stroke="black" d="M1028.35,-577.08C1013.04,-574.429 996.598,-568.676 986,-556.65 850.401,-402.78 1070.41,-241.207 922,-99.6502 863.898,-44.2309 766.688,-46.6868 700.298,-56.8405"/>
<polygon fill="none" stroke="black" points="699.637,-53.4018 690.326,-58.4582 700.758,-60.3115 699.637,-53.4018"/>
</g>
<!-- \\ZucchiModel\\Query\\Criteria -->
<g id="node33" class="node"><title>\\ZucchiModel\\Query\\Criteria</title>
<a xlink:href="Query.Criteria.html" xlink:title="Criteria" target="_parent">
<polygon fill="none" stroke="black" points="1102,-786.65 1032,-786.65 1032,-750.65 1102,-750.65 1102,-786.65"/>
<text text-anchor="middle" x="1067" y="-765.75" font-family="Courier,monospace" font-size="11.00">Criteria</text>
</a>
</g>
<!-- \\ZucchiModel\\Query\\Criteria&#45;&gt;\\Zend\\Stdlib\\AbstractOptions -->
<g id="edge13" class="edge"><title>\\ZucchiModel\\Query\\Criteria&#45;&gt;\\Zend\\Stdlib\\AbstractOptions</title>
<path fill="none" stroke="black" d="M1031.32,-764.006C1015.03,-760.001 996.961,-752.542 986,-738.65 838.756,-552.038 1092.43,-373.361 922,-207.65 867.046,-154.216 775.854,-154.145 709.783,-163.238"/>
<polygon fill="none" stroke="black" points="709.199,-159.786 699.815,-164.705 710.218,-166.712 709.199,-159.786"/>
</g>
<!-- \\ZucchiModel\\ResultSet\\ResultSetInterface -->
<g id="node35" class="node"><title>\\ZucchiModel\\ResultSet\\ResultSetInterface</title>
<a xlink:href="ResultSet.ResultSetInterface.html" xlink:title="ResultSetInterface" target="_parent">
<polygon fill="none" stroke="black" points="698,-1086.65 560,-1086.65 560,-1050.65 698,-1050.65 698,-1086.65"/>
<text text-anchor="middle" x="629" y="-1065.75" font-family="Courier,monospace" font-size="11.00">ResultSetInterface</text>
</a>
</g>
<!-- \\Traversable -->
<g id="node56" class="node"><title>\\Traversable</title>
<ellipse fill="none" stroke="black" cx="132" cy="-472.65" rx="70.2092" ry="18.3848"/>
<text text-anchor="middle" x="132" y="-469.05" font-family="Times Roman,serif" font-size="14.00" fill="gray">\Traversable</text>
</g>
<!-- \\ZucchiModel\\ResultSet\\ResultSetInterface&#45;&gt;\\Traversable -->
<g id="edge33" class="edge"><title>\\ZucchiModel\\ResultSet\\ResultSetInterface&#45;&gt;\\Traversable</title>
<path fill="none" stroke="black" d="M559.993,-1083.13C495.433,-1092.52 399.653,-1095.25 336,-1046.65 243.967,-976.376 160.117,-606.335 137.791,-500.781"/>
<polygon fill="none" stroke="black" points="141.189,-499.933 135.71,-490.864 134.338,-501.37 141.189,-499.933"/>
</g>
<!-- \\Countable -->
<g id="node58" class="node"><title>\\Countable</title>
<ellipse fill="none" stroke="black" cx="132" cy="-322.65" rx="65.0538" ry="18.3848"/>
<text text-anchor="middle" x="132" y="-319.05" font-family="Times Roman,serif" font-size="14.00" fill="gray">\Countable</text>
</g>
<!-- \\ZucchiModel\\ResultSet\\ResultSetInterface&#45;&gt;\\Countable -->
<g id="edge35" class="edge"><title>\\ZucchiModel\\ResultSet\\ResultSetInterface&#45;&gt;\\Countable</title>
<path fill="none" stroke="black" d="M559.76,-1085.89C493.154,-1097.92 394.23,-1103.11 336,-1046.65 227.224,-941.179 358.163,-487.35 264,-368.65 248.889,-349.602 225.389,-338.418 202.38,-331.86"/>
<polygon fill="none" stroke="black" points="203.133,-328.439 192.575,-329.323 201.379,-335.216 203.133,-328.439"/>
</g>
<!-- \\ZucchiModel\\ResultSet\\PaginatedResultSet -->
<g id="node36" class="node"><title>\\ZucchiModel\\ResultSet\\PaginatedResultSet</title>
<a xlink:href="ResultSet.PaginatedResultSet.html" xlink:title="PaginatedResultSet" target="_parent">
<polygon fill="none" stroke="black" points="1136,-1086.65 998,-1086.65 998,-1050.65 1136,-1050.65 1136,-1086.65"/>
<text text-anchor="middle" x="1067" y="-1065.75" font-family="Courier,monospace" font-size="11.00">PaginatedResultSet</text>
</a>
</g>
<!-- \\ZucchiModel\\ResultSet\\PaginatedResultSet&#45;&gt;\\Countable -->
<g id="edge53" class="edge"><title>\\ZucchiModel\\ResultSet\\PaginatedResultSet&#45;&gt;\\Countable</title>
<path fill="none" stroke="black" stroke-dasharray="1,5" d="M998.709,-1050.55C993.89,-1047.23 989.545,-1043.3 986,-1038.65 886.08,-907.55 1043.48,-411.066 922,-299.65 874.014,-255.641 401.009,-295.997 336,-299.65 290.498,-302.207 239.556,-307.948 199.96,-313.054"/>
<polygon fill="none" stroke="black" points="199.351,-309.604 189.889,-314.371 200.258,-316.545 199.351,-309.604"/>
</g>
<!-- \\Iterator -->
<g id="node69" class="node"><title>\\Iterator</title>
<ellipse fill="none" stroke="black" cx="629" cy="-326.65" rx="55.8614" ry="18.3848"/>
<text text-anchor="middle" x="629" y="-323.05" font-family="Times Roman,serif" font-size="14.00" fill="gray">\\Iterator</text>
</g>
<!-- \\ZucchiModel\\ResultSet\\PaginatedResultSet&#45;&gt;\\Iterator -->
<g id="edge51" class="edge"><title>\\ZucchiModel\\ResultSet\\PaginatedResultSet&#45;&gt;\\Iterator</title>
<path fill="none" stroke="black" stroke-dasharray="1,5" d="M998.746,-1050.52C993.919,-1047.21 989.562,-1043.29 986,-1038.65 893.547,-918.279 1028.52,-466.773 922,-358.65 860.601,-296.326 750.524,-302.977 684.176,-314.27"/>
<polygon fill="none" stroke="black" points="683.542,-310.828 674.316,-316.037 684.777,-317.718 683.542,-310.828"/>
</g>
<!-- \\ZucchiModel\\ResultSet\\HydratingResultSet -->
<g id="node37" class="node"><title>\\ZucchiModel\\ResultSet\\HydratingResultSet</title>
<a xlink:href="ResultSet.HydratingResultSet.html" xlink:title="HydratingResultSet" target="_parent">
<polygon fill="none" stroke="black" points="1136,-1140.65 998,-1140.65 998,-1104.65 1136,-1104.65 1136,-1140.65"/>
<text text-anchor="middle" x="1067" y="-1119.75" font-family="Courier,monospace" font-size="11.00">HydratingResultSet</text>
</a>
</g>
<!-- \\ZucchiModel\\ResultSet\\HydratingResultSet&#45;&gt;\\ZucchiModel\\ResultSet\\ResultSetInterface -->
<g id="edge57" class="edge"><title>\\ZucchiModel\\ResultSet\\HydratingResultSet&#45;&gt;\\ZucchiModel\\ResultSet\\ResultSetInterface</title>
<path fill="none" stroke="black" stroke-dasharray="1,5" d="M997.598,-1114.09C918.867,-1104.39 790.726,-1088.59 708.164,-1078.41"/>
<polygon fill="none" stroke="black" points="708.431,-1074.92 698.078,-1077.17 707.574,-1081.86 708.431,-1074.92"/>
</g>
<!-- \\ZucchiModel\\ResultSet\\HydratingResultSet&#45;&gt;\\Iterator -->
<g id="edge55" class="edge"><title>\\ZucchiModel\\ResultSet\\HydratingResultSet&#45;&gt;\\Iterator</title>
<path fill="none" stroke="black" stroke-dasharray="1,5" d="M997.677,-1106.38C993.282,-1103.39 989.305,-1099.84 986,-1095.65 884.193,-966.574 1036.95,-476.175 922,-358.65 860.826,-296.105 750.673,-302.83 684.251,-314.197"/>
<polygon fill="none" stroke="black" points="683.6,-310.757 674.379,-315.975 684.842,-317.646 683.6,-310.757"/>
</g>
<!-- \\ZucchiModel\\ModelManager -->
<g id="node38" class="node"><title>\\ZucchiModel\\ModelManager</title>
<a xlink:href="ModelManager.html" xlink:title="ModelManager" target="_parent">
<polygon fill="none" stroke="black" points="1116,-542.65 1018,-542.65 1018,-506.65 1116,-506.65 1116,-542.65"/>
<text text-anchor="middle" x="1067" y="-521.75" font-family="Courier,monospace" font-size="11.00">ModelManager</text>
</a>
</g>
<!-- \\Zend\\EventManager\\EventManagerAwareInterface -->
<g id="node66" class="node"><title>\\Zend\\EventManager\\EventManagerAwareInterface</title>
<ellipse fill="none" stroke="black" cx="629" cy="-18.6502" rx="272.943" ry="18.3848"/>
<text text-anchor="middle" x="629" y="-15.0502" font-family="Times Roman,serif" font-size="14.00" fill="gray">\\Zend\\EventManager\\EventManagerAwareInterface</text>
</g>
<!-- \\ZucchiModel\\ModelManager&#45;&gt;\\Zend\\EventManager\\EventManagerAwareInterface -->
<g id="edge47" class="edge"><title>\\ZucchiModel\\ModelManager&#45;&gt;\\Zend\\EventManager\\EventManagerAwareInterface</title>
<path fill="none" stroke="black" stroke-dasharray="1,5" d="M1064.22,-506.418C1051.62,-426.335 997.231,-107.033 922,-45.6502 871.29,-4.27546 797.952,2.44892 737.336,-1.15756"/>
<polygon fill="none" stroke="black" points="737.07,2.33252 727.337,-1.85173 737.555,-4.65067 737.07,2.33252"/>
</g>
</g>
</svg>
